<svg xmlns="http://www.w3.org/2000/svg" version="1.1" xmlns:xlink="http://www.w3.org/1999/xlink" xmlns:svgjs="http://svgjs.dev/svgjs" width="1000" height="1000" viewBox="0 0 1000 1000"><rect width="1000" height="1000" fill="#97978d"></rect><g transform="matrix(0.7,0,0,0.7,150.00008093749994,106.25)"><svg viewBox="0 0 320 360" data-background-color="#97978d" preserveAspectRatio="xMidYMid meet" height="1125" width="1000" xmlns="http://www.w3.org/2000/svg" xmlns:xlink="http://www.w3.org/1999/xlink"><g id="tight-bounds" transform="matrix(1,0,0,1,-0.0000369999999634274,0)"><svg viewBox="0 0 320 360" height="360" width="320"><g><svg></svg></g><g><svg viewBox="0 0 320 360" height="360" width="320"><g><path transform="translate(-29.57346,-9.38389) scale(3.79147,3.79147)" d="M50 13.6c19.1 0 34.8 14.8 36.3 33.5h5.9c-0.3-4.7-1.4-9.2-3.2-13.5-2.1-5-5.2-9.6-9.1-13.4-3.9-3.9-8.4-6.9-13.4-9.1-5.3-2.2-10.8-3.4-16.5-3.4-5.7 0-11.2 1.1-16.5 3.3-5 2.1-9.6 5.2-13.4 9.1-3.9 3.9-6.9 8.4-9.1 13.4-1.8 4.3-2.9 8.9-3.2 13.5h5.9c1.5-18.6 17.2-33.4 36.3-33.4zM50 86.4c-19.1 0-34.8-14.8-36.3-33.5h-5.9c0.3 4.7 1.4 9.2 3.2 13.5 2.1 5 5.2 9.6 9.1 13.4 3.9 3.9 8.4 6.9 13.4 9.1 5.2 2.2 10.7 3.3 16.5 3.3 5.8 0 11.2-1.1 16.5-3.3 5-2.1 9.6-5.2 13.4-9.1 3.9-3.9 6.9-8.4 9.1-13.4 1.8-4.3 2.9-8.9 3.2-13.5h-5.9c-1.5 18.7-17.2 33.5-36.3 33.5z" fill="#ffffff" fill-rule="nonzero" stroke="none" stroke-width="1" stroke-linecap="butt" stroke-linejoin="miter" stroke-miterlimit="10" stroke-dasharray="" stroke-dashoffset="0" font-family="none" font-weight="none" font-size="none" text-anchor="none" style="mix-blend-mode: normal" data-fill-palette-color="tertiary"></path></g><g transform="matrix(1,0,0,1,56,146.0578280125001)"><svg viewBox="0 0 208 67.88434397499981" height="67.88434397499981" width="208"><g><svg viewBox="0 0 345.6150491583221 112.79736000000003" height="67.88434397499981" width="208"><g transform="matrix(1,0,0,1,0,3.835757131258468)"><svg viewBox="0 0 208.00000000000003 105.12584573748309" height="105.12584573748309" width="208.00000000000003"><g><svg viewBox="0 0 208.00000000000003 105.12584573748309" height="105.12584573748309" width="208.00000000000003"><g><svg viewBox="0 0 208.00000000000003 105.12584573748309" height="105.12584573748309" width="208.00000000000003"><g transform="matrix(1,0,0,1,0,0)"><svg width="208.00000000000003" viewBox="-8.35 -33.55 73.89999999999999 37.349999999999994" height="105.12584573748309" data-palette-color="#ffffff"><path d="M50.3-32.2L50.3-32.2Q47-32.2 38.2-25.1L38.2-25.1Q32.5-20.5 27.9-15.9L27.9-15.9Q27.5-14.85 26.85-12.45L26.85-12.45Q24.7-4.65 24.7-1.85L24.7-1.85Q24.7-0.4 25.55-0.4L25.55-0.4Q27.6-0.4 32.75-5.5L32.75-5.5Q33.6-6.35 33.6-5.8L33.6-5.8Q33.6-4.3 30-1.65L30-1.65Q25.5 1.7 23.65 1.7L23.65 1.7Q22 1.7 22-0.55 22-2.8 24.3-11.35L24.3-11.35 24.85-13.55Q13.8-3.85 5.5 0.65L5.5 0.65Q-0.3 3.8-3.65 3.8L-3.65 3.8Q-4.05 3.8-4.45 3.75L-4.45 3.75Q-8.35 3.2-8.35-1.05-8.35-5.3-5.5-10L-5.5-10Q-4.45-11.75-3.8-11.75L-3.8-11.75Q-3.6-11.75-3.6-11.43-3.6-11.1-3.95-10.6L-3.95-10.6Q-6.7-6.2-6.7-2.45L-6.7-2.45Q-6.7-0.4-5.8 1.05L-5.8 1.05Q-4.65 2.65-2.75 2.65L-2.75 2.65Q1.25 2.65 10.5-4L10.5-4Q17.25-8.85 24.75-15.65L24.75-15.65 25.55-16.35Q26.7-21.35 26.7-25.25 26.7-29.15 24.9-30.35L24.9-30.35Q23.8-31.1 22.15-31.1 20.5-31.1 18.95-30.6L18.95-30.6Q13.25-28.85 9.83-24.23 6.4-19.6 6.4-15.75 6.4-11.9 9.3-11.9L9.3-11.9Q10.9-11.9 13.25-13.35L13.25-13.35Q13.85-13.8 13.85-13.85L13.85-13.85Q14-13.7 13.5-13.2L13.5-13.2Q11.5-11.2 8.25-11.2L8.25-11.2Q6.3-11.2 5.15-12.18 4-13.15 4-14.9L4-14.9Q4-15.2 4.05-15.55L4.05-15.55Q4.65-22.2 10.48-26.95 16.3-31.7 22.2-31.7L22.2-31.7Q23.8-31.7 25-31.35L25-31.35Q29-30.05 29-24L29-24Q29-21.95 28.45-19.05L28.45-19.05Q33.65-23.65 39.43-28.05 45.2-32.45 47.15-33 49.1-33.55 49.78-33.55 50.45-33.55 50.7-33.45L50.7-33.45Q51.65-33.1 51.65-32.63 51.65-32.15 50.4-32.2L50.4-32.2Q50.35-32.2 50.3-32.2ZM42.85-20.4Q43.6-20.4 44.27-19.93 44.95-19.45 44.95-18.8 44.95-18.15 44.32-17.68 43.7-17.2 42.95-17.2 42.2-17.2 41.57-17.75 40.95-18.3 40.95-19L40.95-19Q40.95-20.4 42.85-20.4L42.85-20.4ZM33.8 0.55L33.8 0.55Q31.25 0.55 31.25-2.75L31.25-2.75Q31.25-5.45 34.2-10.23 37.15-15 38.95-15.05L38.95-15.05Q39.45-15.05 40.07-14.65 40.7-14.25 40.7-13.85L40.7-13.85Q40.45-13.5 40.1-13.08 39.75-12.65 39.35-12.15 38.95-11.65 38.25-10.73 37.55-9.8 36.9-8.95L36.9-8.95Q33.15-4.1 33.15-2.27 33.15-0.45 34.4-0.45L34.4-0.45Q35.45-0.45 37.25-1.6L37.25-1.6Q41.45-4.2 43.9-7.3L43.9-7.3Q44.8-8.45 45.12-8.45 45.45-8.45 45.45-8.05 45.45-7.65 44.3-6.45 43.15-5.25 42.47-4.55 41.8-3.85 41.55-3.63 41.3-3.4 40.62-2.78 39.95-2.15 39.6-1.9 39.25-1.65 38.6-1.15 37.95-0.65 37.45-0.43 36.95-0.2 36.3 0.1L36.3 0.1Q35.25 0.55 33.8 0.55ZM51.34-15.8L51.34-15.8Q52.7-15.8 52.7-14.75L52.7-14.75Q52.7-14.45 52.55-14.15L52.55-14.15Q48.05-7.9 47.15-4.7L47.15-4.7Q58.8-16.35 61.3-16.35L61.3-16.35Q61.55-16.4 61.75-16.4L61.75-16.4Q63.15-16.4 63.15-15.15L63.15-15.15Q63.15-14.9 63.05-14.65 62.95-14.4 61.05-11.95L61.05-11.95Q58.84-9.35 57.32-6.95 55.8-4.55 55.8-2.95 55.8-1.35 56.5-1.35L56.5-1.35Q58.7-1.35 64.15-7.4L64.15-7.4Q64.25-7.5 64.5-7.85L64.5-7.85Q65.25-8.75 65.4-8.75 65.55-8.75 65.55-8.25 65.55-7.75 64.84-6.95L64.84-6.95Q58.65 0.1 56.05 0.1L56.05 0.1Q53.59 0.1 53.59-2.6 53.59-5.3 55.59-8.8L55.59-8.8 58.8-14Q55.4-11.5 52.75-8.53 50.09-5.55 47.92-2.75 45.75 0.05 45.4 0.05L45.4 0.05Q44.65 0.05 44.22-0.58 43.8-1.2 43.8-2.13 43.8-3.05 44.45-4.6 45.09-6.15 46.09-8.35L46.09-8.35 43.09-5.2Q42-4.1 41.72-4.1 41.45-4.1 41.45-4.42 41.45-4.75 41.84-5.15L41.84-5.15Q43.7-7 45.05-8.7L45.05-8.7Q46.34-10.4 50.4-15.2L50.4-15.2Q50.84-15.8 51.34-15.8Z" opacity="1" transform="matrix(1,0,0,1,0,0)" fill="#ffffff" class="undefined-text-0" data-fill-palette-color="primary" id="text-0"></path></svg></g></svg></g></svg></g></svg></g><g transform="matrix(1,0,0,1,232.81768915832208,0)"><svg viewBox="0 0 112.79736000000003 112.79736000000003" height="112.79736000000003" width="112.79736000000003"><g><svg></svg></g><g id="icon-0"><svg viewBox="0 0 112.79736000000003 112.79736000000003" height="112.79736000000003" width="112.79736000000003"><g><rect width="102.56204400000001" height="102.56204400000001" x="5.117658000000006" y="5.117658000000006" fill="#ffffff" data-fill-palette-color="accent"></rect><rect width="102.56204400000001" height="102.56204400000001" x="5.329070518200751e-15" y="5.329070518200751e-15" fill="#ffffff" opacity="0.5" data-fill-palette-color="accent"></rect></g><g transform="matrix(1,0,0,1,14.621880000000004,14.621880000000004)"><svg viewBox="0 0 83.55360000000002 83.55360000000002" height="83.55360000000002" width="83.55360000000002"><g><svg xmlns="http://www.w3.org/2000/svg" xmlns:xlink="http://www.w3.org/1999/xlink" version="1.1" x="0" y="0" viewBox="13 10 57 57" enable-background="new 0 0 80 80" xml:space="preserve" height="83.55360000000002" width="83.55360000000002" class="icon-ju-0" data-fill-palette-color="background" id="ju-0"><path d="M28.9 28l-8.4-8.4 2.1-2.1 8.4 8.4L28.9 28zM25 37H13v3h12V37zM62.8 19.3l-2.1-2.1L52 25.9l2.1 2.1L62.8 19.3zM43 10h-3v12h3V10zM55 38.5C55 46 49 52 41.5 52S28 46 28 38.5 34 25 41.5 25 55 31 55 38.5zM52 38.5C52 32.8 47.2 28 41.5 28S31 32.8 31 38.5 35.8 49 41.5 49 52 44.2 52 38.5zM58 37v3h12v-3H58zM52 51.1l8.4 8.4 2.1-2.1L54.1 49 52 51.1zM40 67h3V55h-3V67zM20.2 57.7l2.1 2.1 8.4-8.4L28.9 49 20.2 57.7zM25.6 43.3l-5.4 2.4 1.2 2.7 5.4-2.4L25.6 43.3zM34.3 17.2l-2.7 1.2 2.4 5.4 2.7-1.2L34.3 17.2zM56.2 30.7l1.2 2.7 5.4-2.4-1.2-2.7L56.2 30.7zM48.7 59.8l2.7-1.2L49 53.2l-2.7 1.2L48.7 59.8zM26.8 30.7l-5.4-2.4L20.2 31l5.4 2.4L26.8 30.7zM51.4 18.4l-2.7-1.2-2.4 5.4 2.7 1.2L51.4 18.4zM57.4 43.3L56.2 46l5.4 2.4 1.2-2.7L57.4 43.3zM31.6 58.6l2.7 1.2 2.4-5.4L34 53.2 31.6 58.6z" fill="#97978d" data-fill-palette-color="background"></path></svg></g></svg></g></svg></g></svg></g></svg></g></svg></g></svg></g><defs></defs></svg><rect width="320" height="360" fill="none" stroke="none" visibility="hidden"></rect></g></svg></g></svg>